<svg width="421" height="69" viewBox="0 0 421 69" fill="none" xmlns="http://www.w3.org/2000/svg">
<path d="M1.58237 68.264C1.51837 68.264 1.32637 68.232 1.00637 68.168C0.622375 68.168 0.430375 68.104 0.430375 67.976C1.71037 65.48 3.18238 62.376 4.84638 58.664C6.51038 54.888 8.23838 50.856 10.0304 46.568C9.45438 46.44 8.84638 46.312 8.20638 46.184C7.63038 46.056 7.02238 45.928 6.38238 45.8C5.93438 45.288 5.58238 44.552 5.32638 43.592C5.07038 42.568 4.94238 41.896 4.94238 41.576C4.94238 41.128 5.03838 40.904 5.23038 40.904C5.61438 40.904 6.31838 41.064 7.34238 41.384C8.43038 41.704 9.90238 41.96 11.7584 42.152C13.4864 37.928 15.1504 33.64 16.7504 29.288C18.4144 24.872 19.9184 20.648 21.2624 16.616C22.6064 12.52 23.6944 8.84 24.5264 5.576L35.0864 0.00799561C35.5984 0.00799561 36.3024 0.167995 37.1984 0.487995C38.0944 0.743996 38.7984 1.192 39.3104 1.832C39.1184 3.496 38.9904 5.224 38.9264 7.016C38.8624 8.744 38.8304 10.472 38.8304 12.2C38.8304 17.448 39.1184 22.728 39.6944 28.04C40.2704 33.288 41.0064 38.376 41.9024 43.304C42.7984 48.168 43.7264 52.712 44.6864 56.936C45.7104 61.16 46.6384 64.84 47.4704 67.976C47.4704 68.168 47.2144 68.264 46.7024 68.264C45.7424 68.264 44.9744 68.136 44.3984 67.88C43.8224 67.624 43.3424 67.272 42.9584 66.824C41.9344 64.584 40.7824 61.672 39.5024 58.088C38.2864 54.504 37.0704 50.632 35.8544 46.472C31.5024 47.176 27.0864 47.528 22.6064 47.528C21.3904 47.528 20.2384 47.528 19.1504 47.528C18.0624 47.464 16.9744 47.4 15.8864 47.336C14.4144 50.408 12.8464 53.544 11.1824 56.744C9.51838 59.944 7.72638 63.304 5.80638 66.824C5.29438 67.272 4.68638 67.624 3.98238 67.88C3.27838 68.136 2.47838 68.264 1.58237 68.264ZM18.1904 42.44C20.7504 42.376 23.4064 42.184 26.1584 41.864C28.9104 41.544 31.5984 41 34.2224 40.232C33.0704 35.88 32.0464 31.496 31.1504 27.08C30.2544 22.664 29.6144 18.6 29.2304 14.888C27.3744 20.008 25.5504 24.808 23.7584 29.288C21.9664 33.704 20.1104 38.088 18.1904 42.44ZM85.7699 67.112C85.3219 67.112 85.0979 67.016 85.0979 66.824C85.5459 63.112 85.8979 59.496 86.1539 55.976C86.4099 52.456 86.5379 49.224 86.5379 46.28C86.5379 41.8 86.1219 38.184 85.2899 35.432C84.4579 32.616 82.9859 31.208 80.8739 31.208C78.1859 31.208 75.4659 33.48 72.7139 38.024C69.9619 42.568 67.1779 49.224 64.3619 57.992L62.1539 64.904C61.7699 65.288 61.1619 65.608 60.3299 65.864C59.5619 66.12 58.9539 66.248 58.5059 66.248C58.0579 66.248 57.8339 66.12 57.8339 65.864C59.1139 59.144 59.8819 53.256 60.1379 48.2C60.3939 43.144 60.3299 38.792 59.9459 35.144C59.5619 31.432 59.0499 28.36 58.4099 25.928C57.8339 23.432 57.3539 21.416 56.9699 19.88L59.2739 18.44L67.0499 22.184C67.3699 27.304 67.4659 32.36 67.3379 37.352L68.0099 37.448C70.6339 32.136 73.5459 27.848 76.7459 24.584C79.9459 21.32 83.0179 19.688 85.9619 19.688C88.6499 19.688 90.6019 20.712 91.8179 22.76C93.0339 24.744 93.6419 27.336 93.6419 30.536C93.6419 36.168 93.2579 41.928 92.4899 47.816C91.7859 53.64 90.9539 59.624 89.9939 65.768C89.6099 66.216 88.9379 66.536 87.9779 66.728C87.0179 66.984 86.2819 67.112 85.7699 67.112ZM111.502 12.68C109.902 12.68 108.686 12.104 107.854 10.952C107.022 9.736 106.606 8.52 106.606 7.304C106.606 5.448 107.342 3.88 108.814 2.6C110.286 1.32 112.43 0.487997 115.246 0.103994C116.334 0.935995 117.07 1.928 117.454 3.08C117.902 4.168 118.126 5.224 118.126 6.248C118.126 8.232 117.422 9.8 116.014 10.952C114.606 12.104 113.102 12.68 111.502 12.68ZM106.222 66.248C105.774 66.248 105.55 66.152 105.55 65.96C106.446 60.776 107.054 56.072 107.374 51.848C107.758 47.624 107.95 43.848 107.95 40.52C107.95 35.272 107.662 30.984 107.086 27.656C106.51 24.328 105.966 21.736 105.454 19.88L107.758 18.44L115.534 22.184C115.598 23.208 115.63 24.264 115.63 25.352C115.694 26.376 115.726 27.432 115.726 28.52C115.726 34.536 115.182 40.584 114.094 46.664C113.07 52.68 111.662 58.76 109.87 64.904C109.486 65.288 108.878 65.608 108.046 65.864C107.278 66.12 106.67 66.248 106.222 66.248ZM154.553 67.112C154.233 67.112 154.073 67.016 154.073 66.824C154.393 63.112 154.681 59.496 154.937 55.976C155.193 52.456 155.321 49.224 155.321 46.28C155.321 41.8 154.937 38.184 154.169 35.432C153.401 32.616 151.993 31.208 149.945 31.208C147.769 31.208 145.369 32.872 142.745 36.2C140.185 39.464 137.977 44.424 136.121 51.08L132.185 64.904C131.801 65.288 131.193 65.608 130.361 65.864C129.593 66.12 128.985 66.248 128.537 66.248C128.089 66.248 127.865 66.12 127.865 65.864C129.145 59.144 129.913 53.256 130.169 48.2C130.425 43.144 130.361 38.792 129.977 35.144C129.593 31.432 129.081 28.36 128.441 25.928C127.865 23.432 127.385 21.416 127.001 19.88L129.305 18.44L137.081 22.184C137.273 27.048 137.369 31.912 137.369 36.776L137.945 36.872C140.377 31.688 143.097 27.528 146.105 24.392C149.113 21.256 151.993 19.688 154.745 19.688C157.433 19.688 159.385 20.712 160.601 22.76C161.817 24.744 162.425 27.336 162.425 30.536C162.425 31.56 162.393 32.584 162.329 33.608C162.329 34.568 162.297 35.56 162.233 36.584L162.809 36.68C165.241 31.56 168.025 27.464 171.161 24.392C174.297 21.256 177.241 19.688 179.993 19.688C182.681 19.688 184.633 20.712 185.849 22.76C187.065 24.744 187.673 27.336 187.673 30.536C187.673 36.168 187.321 41.928 186.617 47.816C185.913 53.64 185.049 59.624 184.025 65.768C183.641 66.216 182.969 66.536 182.009 66.728C181.049 66.984 180.345 67.112 179.897 67.112C179.513 67.112 179.321 67.016 179.321 66.824C179.641 63.112 179.929 59.496 180.185 55.976C180.441 52.456 180.569 49.224 180.569 46.28C180.569 41.8 180.185 38.184 179.417 35.432C178.649 32.616 177.241 31.208 175.193 31.208C173.529 31.208 171.609 32.168 169.433 34.088C167.321 36.008 165.369 38.952 163.577 42.92C161.785 46.888 160.505 51.912 159.737 57.992L158.777 65.768C158.393 66.216 157.721 66.536 156.761 66.728C155.801 66.984 155.065 67.112 154.553 67.112ZM209.278 67.112C205.246 67.112 202.142 65.64 199.966 62.696C197.79 59.752 196.702 55.912 196.702 51.176C196.702 48.168 197.118 45.064 197.95 41.864C198.846 38.6 200.286 35.464 202.27 32.456C204.318 29.448 207.07 26.792 210.526 24.488C213.982 22.184 218.302 20.424 223.486 19.208C225.726 19.976 227.262 21.384 228.094 23.432C228.926 25.48 229.342 27.56 229.342 29.672C228.574 32.808 227.134 35.496 225.022 37.736C222.974 39.976 220.638 41.832 218.014 43.304C215.39 44.712 212.894 45.832 210.526 46.664C208.158 47.432 206.302 47.944 204.958 48.2C205.278 51.528 206.142 53.928 207.55 55.4C209.022 56.872 210.686 57.608 212.542 57.608C215.486 57.608 218.238 56.36 220.798 53.864C223.358 51.304 225.694 47.816 227.806 43.4C227.934 43.016 228.158 42.824 228.478 42.824C228.798 42.824 229.246 42.984 229.822 43.304C230.398 43.56 230.91 43.848 231.358 44.168C229.63 48.392 227.55 52.264 225.118 55.784C222.75 59.24 220.19 61.992 217.438 64.04C214.75 66.088 212.03 67.112 209.278 67.112ZM204.958 44.36C208.798 43.336 211.934 42.024 214.366 40.424C216.798 38.76 218.59 37.032 219.742 35.24C220.894 33.384 221.47 31.688 221.47 30.152C221.47 29.256 221.182 28.488 220.606 27.848C220.03 27.144 219.198 26.792 218.11 26.792C216.638 26.792 214.91 27.432 212.926 28.712C211.006 29.928 209.246 31.816 207.646 34.376C206.11 36.936 205.214 40.264 204.958 44.36Z" fill="#30D33B"/>
<path d="M283.753 68.264C283.305 68.264 282.665 68.136 281.833 67.88C281.001 67.624 280.393 67.272 280.009 66.824C278.985 61.704 278.089 56.68 277.321 51.752C276.553 46.76 275.977 41.832 275.593 36.968C272.457 37.608 269.257 38.152 265.993 38.6C262.793 38.984 259.593 39.176 256.393 39.176C255.881 39.176 255.337 39.176 254.761 39.176C254.249 39.176 253.737 39.144 253.225 39.08C252.777 43.752 252.201 48.392 251.497 53C250.857 57.608 250.185 62.056 249.481 66.344C249.033 66.92 248.265 67.368 247.177 67.688C246.153 68.008 245.385 68.168 244.873 68.168C244.169 68.168 243.817 68.008 243.817 67.688C243.817 67.688 244.041 66.664 244.489 64.616C245.001 62.568 245.481 59.528 245.929 55.496C246.441 51.464 246.697 46.536 246.697 40.712C246.697 40.392 246.665 40.04 246.601 39.656C246.601 39.272 246.601 38.888 246.601 38.504C245.065 38.312 243.145 37.928 240.841 37.352C240.393 36.904 240.041 36.232 239.785 35.336C239.529 34.44 239.401 33.8 239.401 33.416C239.401 32.84 239.529 32.552 239.785 32.552C240.169 32.552 240.873 32.712 241.897 33.032C242.985 33.352 244.521 33.608 246.505 33.8C246.249 29.704 245.865 25.864 245.353 22.28C244.841 18.696 244.297 15.528 243.721 12.776C243.209 10.024 242.761 7.88 242.377 6.344C241.993 4.744 241.801 3.944 241.801 3.944L250.153 0.00799561L252.649 1.544C253.161 4.68 253.513 7.88 253.705 11.144C253.961 14.408 254.089 17.704 254.089 21.032C254.089 23.208 254.025 25.384 253.897 27.56C253.833 29.672 253.737 31.816 253.609 33.992C257.129 33.864 260.777 33.48 264.553 32.84C268.329 32.136 271.849 31.048 275.113 29.576C275.049 28.552 275.017 27.56 275.017 26.6C275.017 25.576 275.017 24.552 275.017 23.528C275.017 19.816 275.177 16.168 275.497 12.584C275.817 8.936 276.265 5.256 276.841 1.544L279.337 0.00799561L287.497 3.944C285.769 8.36 284.585 13.544 283.945 19.496C283.369 25.448 283.081 31.88 283.081 38.792C283.081 44.68 283.209 50.248 283.465 55.496C283.785 60.68 284.137 64.84 284.521 67.976C284.521 68.168 284.265 68.264 283.753 68.264ZM335.528 67.688C335.08 67.688 334.44 67.56 333.608 67.304C332.84 67.048 332.264 66.728 331.88 66.344C330.792 63.72 329.832 60.52 329 56.744C328.168 52.904 327.496 49.16 326.984 45.512C325.256 49.736 323.24 53.48 320.936 56.744C318.632 59.944 316.264 62.472 313.832 64.328C311.4 66.184 309.064 67.112 306.824 67.112C304.072 67.112 302.088 66.088 300.872 64.04C299.72 61.992 299.144 59.4 299.144 56.264C299.144 50.568 299.56 44.84 300.392 39.08C301.224 33.256 302.024 27.24 302.792 21.032C303.176 20.648 303.848 20.328 304.808 20.072C305.768 19.816 306.472 19.688 306.92 19.688C307.368 19.688 307.592 19.816 307.592 20.072C307.208 23.72 306.888 27.304 306.632 30.824C306.376 34.344 306.248 37.576 306.248 40.52C306.248 45 306.632 48.648 307.4 51.464C308.232 54.216 309.736 55.592 311.912 55.592C314.152 55.592 316.552 54.024 319.112 50.888C321.736 47.752 324.04 43.08 326.024 36.872C325.96 36.104 325.928 35.4 325.928 34.76C325.928 34.12 325.928 33.544 325.928 33.032C325.928 29.896 325.992 27.528 326.12 25.928C326.312 24.264 326.536 22.632 326.792 21.032L334.472 17.672L336.872 19.016C335.912 21.832 335.144 25.224 334.568 29.192C333.992 33.16 333.704 36.936 333.704 40.52C333.704 42.248 333.768 44.392 333.896 46.952C334.088 49.512 334.28 52.168 334.472 54.92C334.728 57.608 335.016 60.104 335.336 62.408C335.656 64.648 335.944 66.312 336.2 67.4C336.2 67.592 335.976 67.688 335.528 67.688ZM376.207 67.112C375.759 67.112 375.535 67.016 375.535 66.824C375.983 63.112 376.335 59.496 376.591 55.976C376.847 52.456 376.975 49.224 376.975 46.28C376.975 41.8 376.559 38.184 375.727 35.432C374.895 32.616 373.423 31.208 371.311 31.208C368.623 31.208 365.903 33.48 363.151 38.024C360.399 42.568 357.615 49.224 354.799 57.992L352.591 64.904C352.207 65.288 351.599 65.608 350.767 65.864C349.999 66.12 349.391 66.248 348.943 66.248C348.495 66.248 348.271 66.12 348.271 65.864C349.551 59.144 350.319 53.256 350.575 48.2C350.831 43.144 350.767 38.792 350.383 35.144C349.999 31.432 349.487 28.36 348.847 25.928C348.271 23.432 347.791 21.416 347.407 19.88L349.711 18.44L357.487 22.184C357.807 27.304 357.903 32.36 357.775 37.352L358.447 37.448C361.071 32.136 363.983 27.848 367.183 24.584C370.383 21.32 373.455 19.688 376.399 19.688C379.087 19.688 381.039 20.712 382.255 22.76C383.471 24.744 384.079 27.336 384.079 30.536C384.079 36.168 383.695 41.928 382.927 47.816C382.223 53.64 381.391 59.624 380.431 65.768C380.047 66.216 379.375 66.536 378.415 66.728C377.455 66.984 376.719 67.112 376.207 67.112ZM399.252 67.112C398.804 67.112 398.58 67.016 398.58 66.824C399.348 61.896 399.892 57.32 400.212 53.096C400.532 48.808 400.692 44.552 400.692 40.328C400.692 38.984 400.66 37.288 400.596 35.24C400.596 33.192 400.532 31.016 400.404 28.712C399.06 28.584 397.684 28.424 396.276 28.232C394.932 27.976 393.652 27.688 392.436 27.368C392.18 27.24 391.892 26.856 391.572 26.216C391.316 25.576 391.092 24.936 390.9 24.296C390.708 23.592 390.58 23.08 390.516 22.76C390.516 22.44 390.58 22.28 390.708 22.28C390.836 22.216 390.9 22.184 390.9 22.184C392.308 22.44 393.812 22.632 395.412 22.76C397.076 22.888 398.644 22.952 400.116 22.952C399.988 20.264 399.828 17.672 399.636 15.176C399.508 12.68 399.316 10.536 399.06 8.744L401.364 7.112L409.14 11.24L408.564 22.472C410.932 22.152 413.012 21.736 414.804 21.224C416.596 20.648 418.196 20.104 419.604 19.592L420.564 21.128L417.684 27.848C414.548 28.488 411.348 28.84 408.084 28.904C407.764 33.32 407.38 37.832 406.932 42.44C406.484 46.984 405.94 51.272 405.3 55.304C404.724 59.336 404.052 62.824 403.284 65.768C402.9 66.216 402.228 66.536 401.268 66.728C400.372 66.984 399.7 67.112 399.252 67.112Z" fill="#E4F03D"/>
</svg>
