<svg width="105" height="69" viewBox="0 0 105 69" fill="none" xmlns="http://www.w3.org/2000/svg">
<path d="M1.4105 68.264C1.3465 68.264 1.1545 68.232 0.8345 68.168C0.4505 68.168 0.2585 68.104 0.2585 67.976C1.5385 65.48 3.0105 62.376 4.6745 58.664C6.3385 54.888 8.0665 50.856 9.8585 46.568C9.2825 46.44 8.6745 46.312 8.0345 46.184C7.4585 46.056 6.8505 45.928 6.2105 45.8C5.7625 45.288 5.4105 44.552 5.1545 43.592C4.8985 42.568 4.7705 41.896 4.7705 41.576C4.7705 41.128 4.8665 40.904 5.0585 40.904C5.4425 40.904 6.1465 41.064 7.1705 41.384C8.2585 41.704 9.7305 41.96 11.5865 42.152C13.3145 37.928 14.9785 33.64 16.5785 29.288C18.2425 24.872 19.7465 20.648 21.0905 16.616C22.4345 12.52 23.5225 8.84 24.3545 5.576L34.9145 0.00799561C35.4265 0.00799561 36.1305 0.167995 37.0265 0.487995C37.9225 0.743996 38.6265 1.192 39.1385 1.832C38.9465 3.496 38.8185 5.224 38.7545 7.016C38.6905 8.744 38.6585 10.472 38.6585 12.2C38.6585 17.448 38.9465 22.728 39.5225 28.04C40.0985 33.288 40.8345 38.376 41.7305 43.304C42.6265 48.168 43.5545 52.712 44.5145 56.936C45.5385 61.16 46.4665 64.84 47.2985 67.976C47.2985 68.168 47.0425 68.264 46.5305 68.264C45.5705 68.264 44.8025 68.136 44.2265 67.88C43.6505 67.624 43.1705 67.272 42.7865 66.824C41.7625 64.584 40.6105 61.672 39.3305 58.088C38.1145 54.504 36.8985 50.632 35.6825 46.472C31.3305 47.176 26.9145 47.528 22.4345 47.528C21.2185 47.528 20.0665 47.528 18.9785 47.528C17.8905 47.464 16.8025 47.4 15.7145 47.336C14.2425 50.408 12.6745 53.544 11.0105 56.744C9.3465 59.944 7.5545 63.304 5.6345 66.824C5.1225 67.272 4.5145 67.624 3.8105 67.88C3.1065 68.136 2.3065 68.264 1.4105 68.264ZM18.0185 42.44C20.5785 42.376 23.2345 42.184 25.9865 41.864C28.7385 41.544 31.4265 41 34.0505 40.232C32.8985 35.88 31.8745 31.496 30.9785 27.08C30.0825 22.664 29.4425 18.6 29.0585 14.888C27.2025 20.008 25.3785 24.808 23.5865 29.288C21.7945 33.704 19.9385 38.088 18.0185 42.44Z" fill="#30D33B"/>
<path d="M100.862 68.264C100.414 68.264 99.774 68.136 98.942 67.88C98.11 67.624 97.502 67.272 97.118 66.824C96.094 61.704 95.198 56.68 94.43 51.752C93.662 46.76 93.086 41.832 92.702 36.968C89.566 37.608 86.366 38.152 83.102 38.6C79.902 38.984 76.702 39.176 73.502 39.176C72.99 39.176 72.446 39.176 71.87 39.176C71.358 39.176 70.846 39.144 70.334 39.08C69.886 43.752 69.31 48.392 68.606 53C67.966 57.608 67.294 62.056 66.59 66.344C66.142 66.92 65.374 67.368 64.286 67.688C63.262 68.008 62.494 68.168 61.982 68.168C61.278 68.168 60.926 68.008 60.926 67.688C60.926 67.688 61.15 66.664 61.598 64.616C62.11 62.568 62.59 59.528 63.038 55.496C63.55 51.464 63.806 46.536 63.806 40.712C63.806 40.392 63.774 40.04 63.71 39.656C63.71 39.272 63.71 38.888 63.71 38.504C62.174 38.312 60.254 37.928 57.95 37.352C57.502 36.904 57.15 36.232 56.894 35.336C56.638 34.44 56.51 33.8 56.51 33.416C56.51 32.84 56.638 32.552 56.894 32.552C57.278 32.552 57.982 32.712 59.006 33.032C60.094 33.352 61.63 33.608 63.614 33.8C63.358 29.704 62.974 25.864 62.462 22.28C61.95 18.696 61.406 15.528 60.83 12.776C60.318 10.024 59.87 7.88 59.486 6.344C59.102 4.744 58.91 3.944 58.91 3.944L67.262 0.00799561L69.758 1.544C70.27 4.68 70.622 7.88 70.814 11.144C71.07 14.408 71.198 17.704 71.198 21.032C71.198 23.208 71.134 25.384 71.006 27.56C70.942 29.672 70.846 31.816 70.718 33.992C74.238 33.864 77.886 33.48 81.662 32.84C85.438 32.136 88.958 31.048 92.222 29.576C92.158 28.552 92.126 27.56 92.126 26.6C92.126 25.576 92.126 24.552 92.126 23.528C92.126 19.816 92.286 16.168 92.606 12.584C92.926 8.936 93.374 5.256 93.95 1.544L96.446 0.00799561L104.606 3.944C102.878 8.36 101.694 13.544 101.054 19.496C100.478 25.448 100.19 31.88 100.19 38.792C100.19 44.68 100.318 50.248 100.574 55.496C100.894 60.68 101.246 64.84 101.63 67.976C101.63 68.168 101.374 68.264 100.862 68.264Z" fill="#E4F03D"/>
</svg>
